<?xml version="1.0" encoding="utf-8"?>
<!-- Generator: Adobe Illustrator 21.1.0, SVG Export Plug-In . SVG Version: 6.00 Build 0)  -->
<svg version="1.1" id="Layer_1" xmlns="http://www.w3.org/2000/svg" xmlns:xlink="http://www.w3.org/1999/xlink" x="0px" y="0px"
	 viewBox="0 0 874 214" style="enable-background:new 0 0 874 214;" xml:space="preserve">
<g>
	<path d="M134.3,45.1c-6.6,0-10.7,4.9-10.7,13.4c0,7.8,3.6,13.8,10.6,13.8c6.7,0,11.1-5.3,11.1-14C145.3,49.2,140.4,45.1,134.3,45.1
		z"/>
	<path d="M310.9,67.8c0,2.9,1.4,5.2,5.3,5.2c4.6,0,9.5-3.3,9.8-10.8c-2.1-0.3-4.4-0.6-6.5-0.6C314.9,61.6,310.9,62.9,310.9,67.8z"/>
	<path d="M0-0.6v103h360v-103C360-0.6,0-0.6,0-0.6z M104.7,81.3H85.9V55.9c0-7.8-2.6-10.8-7.7-10.8c-6.2,0-8.7,4.4-8.7,10.7v15.7h6
		v9.8H56.6V55.9c0-7.8-2.6-10.8-7.7-10.8c-6.2,0-8.7,4.4-8.7,10.7v15.7h8.6v9.8H21.4v-9.8h6V46h-6v-9.8h18.9V43
		c2.7-4.8,7.4-7.7,13.7-7.7c6.5,0,12.5,3.1,14.7,9.7c2.5-6,7.6-9.7,14.7-9.7c8.1,0,15.5,4.9,15.5,15.6v20.5h5.8V81.3z M133.8,82.4
		c-13.9,0-23.5-8.5-23.5-22.9c0-13.2,8-24.1,24.2-24.1s24.1,10.9,24.1,23.5C158.6,73.2,148.2,82.4,133.8,82.4z M206.4,81.4h-39.3
		l-1.3-6.8L190.6,46h-14.1l-2,7l-9.3-1l1.6-15.8h39.5l1,6.8l-25,28.5h14.6l2.1-7l10.2,1L206.4,81.4z M232.2,81.4h-13.5V65.1h13.5
		V81.4z M232.2,52.4h-13.5V36.2h13.5V52.4z M240.5,81.3L260,12.5h12.7l-19.5,68.8H240.5z M266.7,81.3l19.5-68.8h12.7l-19.5,68.8
		H266.7z M336,82.4c-6,0-9.3-3.5-9.9-9c-2.6,4.6-7.2,9-14.5,9c-6.5,0-13.9-3.5-13.9-12.9c0-11.1,10.7-13.7,21-13.7
		c2.5,0,5.1,0.1,7.4,0.4v-1.5c0-4.6-0.1-10.1-7.4-10.1c-2.7,0-4.8,0.2-6.9,1.3l-1.5,5.1L300,49.8l1.6-10.4
		c7.9-3.2,11.9-4.1,19.3-4.1c9.7,0,17.9,5,17.9,15.3v19.5c0,2.6,1,3.5,3.1,3.5c0.6,0,1.2-0.1,1.9-0.3l0.3,6.9
		C341.7,81.6,338.8,82.4,336,82.4z"/>
</g>
<g>
	<path d="M452.8,183.5c0,5.2,4,6.9,7.6,6.9c5.7,0,11.6-4.2,12.1-10.9v-3.1c-2.3-0.2-4.9-0.5-7.6-0.5
		C458.8,175.9,452.8,177.1,452.8,183.5z"/>
	<path d="M136.9,158.4c-7.5,0-10.9,5.8-11.7,12.7h22.4C148.3,165,144.9,158.4,136.9,158.4z"/>
	<path d="M677.6,158.4c-7.5,0-10.9,5.8-11.7,12.7h22.4C689,165,685.6,158.4,677.6,158.4z"/>
	<path d="M421.2,158.4c-7.5,0-10.9,5.8-11.7,12.7H432C432.6,165,429.2,158.4,421.2,158.4z"/>
	<path d="M874,111.3H0v0.1v103l700-0.1v-5.2h7.3v-50h-7.4v-5.2h13.8v8.6c2.5-5,7-9.4,14.5-9.4c10.5,0,17.7,7.5,17.7,20.1
		c0,10.9-5.3,22.5-18.7,22.5c-5.8,0-10.8-2.4-13.5-6.9v20.3h9.5v5.2l150.8,0V111.3z M11.8,134.9h7v8.4h-7V134.9z M26.1,194.8H5.3
		v-5.2h7.2v-30.5H5.1v-5.2h13.8v35.7h7.2V194.8z M79.8,194.8H59.1v-5.2h7.1v-19c0-8.8-4-12.1-9.5-12.1c-7.4,0-12.1,5.7-12.4,12v19.1
		h7.2v5.2H30.7v-5.2h7.2v-30.5h-7.4v-5.2h13.8v7.3c2.8-5.1,7.8-8.1,14.4-8.1c8,0,14.1,4.7,14.1,15.5v21h7.1V194.8z M101.3,195.7
		c-8.2,0-12.7-5-12.7-13V159H82v-5.2h6.6v-13.2h6.4v13.2h16v5.2h-16v22.9c0,5,1.9,8.2,6.9,8.2c3.2,0,6.3-1.3,7.5-7.9l4.9,1.6
		C113.2,191.7,108.7,195.7,101.3,195.7z M137.6,195.7c-11.6,0-19.3-7.5-19.3-20.8c0-12.7,7.2-21.9,18.8-21.9
		c11.2,0,17.3,8.3,17.4,17.9c0,1.6-0.2,3.2-0.6,4.9h-28.8c0.4,9.1,4.9,14.4,13,14.4c6.4,0,10-3.3,11.3-8.4l5.4,1.2
		C153.7,190,147.7,195.7,137.6,195.7z M187.5,166.2l-1.6-7c-1-0.4-2-0.6-3.1-0.6c-4.8,0-8.4,4.4-8.4,10.8v20.1h9.5v5.2h-23.1v-5.2
		h7.2v-30.5h-7.4v-5.2H174v7.4c1.6-4.6,5.4-8.1,10.1-8.1c2.9,0,5,0.5,7,2.1l1.6,10.3L187.5,166.2z M248.5,194.8h-20.7v-5.2h7.1v-19
		c0-8.8-4-12.1-9.5-12.1c-7.4,0-12.1,5.7-12.4,12v19.1h7.2v5.2h-20.8v-5.2h7.2v-30.5h-7.4v-5.2H213v7.3c2.8-5.1,7.8-8.1,14.4-8.1
		c8,0,14.1,4.7,14.1,15.5v21h7.1V194.8z M272.2,195.7c-11.6,0-19.3-7.5-19.3-20.8c0-12.7,7.2-21.9,18.8-21.9
		c11.2,0,17.3,8.3,17.4,17.9c0,1.6-0.2,3.2-0.6,4.9h-28.8c0.4,9.1,4.9,14.4,13,14.4c6.4,0,10-3.3,11.3-8.4l5.4,1.2
		C288.3,190,282.3,195.7,272.2,195.7z M313.3,195.7c-8.2,0-12.7-5-12.7-13V159H294v-5.2h6.6v-13.2h6.4v13.2h16v5.2h-16v22.9
		c0,5,1.9,8.2,6.9,8.2c3.2,0,6.3-1.3,7.5-7.9l4.9,1.6C325.2,191.7,320.7,195.7,313.3,195.7z M398.3,194.8h-20.8v-5.2h7.2v-19
		c0-8.8-4-12.1-9.7-12.1c-7.2,0-12,5.8-12.2,11.8v19.3h7.1v5.2h-20.7v-5.2h7.1v-52.8h-7.1v-5.2h13.6v29.7c2.8-5.1,7.7-8.2,14.4-8.2
		c8,0,14.1,4.7,14.1,15.5v21h7.1V194.8z M422,195.7c-11.6,0-19.3-7.5-19.3-20.8c0-12.7,7.2-21.9,18.8-21.9
		c11.2,0,17.3,8.3,17.4,17.9c0,1.6-0.2,3.2-0.6,4.9h-28.8c0.4,9.1,4.9,14.4,13,14.4c6.4,0,10-3.3,11.3-8.4l5.4,1.2
		C438.1,190,432.1,195.7,422,195.7z M479.9,195.7c-4.8,0-7.4-3.2-7.5-8.3v-0.2c-2.6,4.4-7.4,8.5-14,8.5c-5.4,0-12.4-2.8-12.4-11.5
		c0-10.3,9.9-12.6,19.1-12.6c2.5,0,5.1,0.2,7.3,0.4v-3.7c0-5.9-1.9-9.9-9.3-9.9c-2.8,0-5.4,0.5-7.9,1.7l-1.6,7.1l-5.3-0.6l1.5-9.5
		c4.2-2.9,9.1-4,14.4-4c9.5,0,14.6,4.5,14.6,13.7v19.5c0,3,1.1,4.4,3.5,4.4c0.8,0,1.9-0.2,2.8-0.6l0.1,4.2
		C483.8,195.2,481.8,195.7,479.9,195.7z M509.4,194.8h-20.8v-5.2h7.2v-52.8h-7.3v-5.2h13.7v58h7.2V194.8z M532,195.7
		c-8.2,0-12.7-5-12.7-13V159h-6.6v-5.2h6.6v-13.2h6.4v13.2h16v5.2h-16v22.9c0,5,1.9,8.2,6.9,8.2c3.2,0,6.3-1.3,7.5-7.9l4.9,1.6
		C543.9,191.7,539.3,195.7,532,195.7z M596.1,194.8h-20.8v-5.2h7.2v-19c0-8.8-4-12.1-9.7-12.1c-7.2,0-12,5.8-12.2,11.8v19.3h7.1v5.2
		H547v-5.2h7.1v-52.8H547v-5.2h13.6v29.7c2.8-5.1,7.7-8.2,14.4-8.2c8,0,14.1,4.7,14.1,15.5v21h7.1V194.8z M646.3,166.2l-1.6-7
		c-1-0.4-2-0.6-3.1-0.6c-4.8,0-8.4,4.4-8.4,10.8v20.1h9.5v5.2h-23.1v-5.2h7.2v-30.5h-7.4v-5.2h13.4v7.4c1.6-4.6,5.4-8.1,10.1-8.1
		c2.9,0,5,0.5,7,2.1l1.6,10.3L646.3,166.2z M678.4,195.7c-11.6,0-19.3-7.5-19.3-20.8c0-12.7,7.2-21.9,18.8-21.9
		c11.2,0,17.3,8.3,17.4,17.9c0,1.6-0.2,3.2-0.6,4.9h-28.8c0.4,9.1,4.9,14.4,13,14.4c6.4,0,10-3.3,11.3-8.4l5.4,1.2
		C694.5,190,688.5,195.7,678.4,195.7z M772.7,195.7c-12.4,0-19.9-8.7-19.9-21.1c0-12,7-21.7,20.2-21.7c13.3,0,20.1,9.8,20.1,21.3
		C793.2,186.7,785.3,195.7,772.7,195.7z M826,166.2l-1.6-7c-1-0.4-2-0.6-3.1-0.6c-4.8,0-8.4,4.4-8.4,10.8v20.1h9.5v5.2h-23.1v-5.2
		h7.2v-30.5h-7.4v-5.2h13.4v7.4c1.6-4.6,5.4-8.1,10.1-8.1c2.9,0,5,0.5,7,2.1l1.6,10.3L826,166.2z M855.9,195.7
		c-8.2,0-12.7-5-12.7-13V159h-6.6v-5.2h6.6v-13.2h6.4v13.2h16v5.2h-16v22.9c0,5,1.9,8.2,6.9,8.2c3.2,0,6.3-1.3,7.5-7.9l4.9,1.6
		C867.8,191.7,863.3,195.7,855.9,195.7z"/>
	<path d="M271.5,158.4c-7.5,0-10.9,5.8-11.7,12.7h22.4C282.9,165,279.5,158.4,271.5,158.4z"/>
	<path d="M772.8,158.5c-8.6,0-13.3,6.7-13.3,15.8c0,8.9,4.6,15.9,13.3,15.9c8.7,0,13.5-6.8,13.5-16
		C786.4,164.8,781.4,158.5,772.8,158.5z"/>
	<path d="M725.9,190.2c9.2,0,13.2-7.7,13.2-16.5c0-9.8-5.3-15.2-12.5-15.2c-7.4,0-12.6,7.2-12.9,13.4v6.1
		C713.7,185,719.1,190.2,725.9,190.2z"/>
	<rect x="700" y="214.3" width="23.2" height="0.1"/>
</g>
</svg>
