<?xml version="1.0" encoding="utf-8"?>
<!-- Generator: Adobe Illustrator 21.1.0, SVG Export Plug-In . SVG Version: 6.00 Build 0)  -->
<svg version="1.1" id="Layer_1" xmlns="http://www.w3.org/2000/svg" xmlns:xlink="http://www.w3.org/1999/xlink" x="0px" y="0px"
	 viewBox="0 0 360 102.8" style="enable-background:new 0 0 360 102.8;" xml:space="preserve">
<style type="text/css">
	.st0{fill:#FFFFFF;}
</style>
<g>
	<path class="st0" d="M134.3,45.5c-6.6,0-10.7,4.9-10.7,13.4c0,7.8,3.6,13.8,10.6,13.8c6.7,0,11.1-5.3,11.1-14
		C145.3,49.6,140.4,45.5,134.3,45.5z"/>
	<path class="st0" d="M310.9,68.2c0,2.9,1.4,5.2,5.3,5.2c4.6,0,9.5-3.3,9.8-10.8c-2.1-0.3-4.4-0.6-6.5-0.6
		C314.9,62,310.9,63.3,310.9,68.2z"/>
	<path class="st0" d="M0-0.2v102.9h360V-0.2H0z M104.7,81.6H85.9V56.3c0-7.8-2.6-10.8-7.7-10.8c-6.2,0-8.7,4.4-8.7,10.7v15.7h6v9.8
		H56.6V56.3c0-7.8-2.6-10.8-7.7-10.8c-6.2,0-8.7,4.4-8.7,10.7v15.7h8.6v9.8H21.4v-9.8h6V46.4h-6v-9.8h18.9v6.8
		c2.7-4.8,7.4-7.7,13.7-7.7c6.5,0,12.5,3.1,14.7,9.7c2.5-6,7.6-9.7,14.7-9.7c8.1,0,15.5,4.9,15.5,15.6v20.5h5.8V81.6z M133.8,82.7
		c-13.9,0-23.5-8.5-23.5-22.9c0-13.2,8-24.1,24.2-24.1s24.1,10.9,24.1,23.5C158.6,73.6,148.2,82.7,133.8,82.7z M206.4,81.7h-39.3
		l-1.3-6.8l24.8-28.5h-14.1l-2,7l-9.3-1l1.6-15.8h39.5l1,6.8l-25,28.5h14.6l2.1-7l10.2,1L206.4,81.7z M232.2,81.7h-13.5V65.5h13.5
		V81.7z M232.2,52.8h-13.5V36.6h13.5V52.8z M240.5,81.6L260,12.9h12.7l-19.5,68.7H240.5z M266.7,81.6l19.5-68.7h12.7l-19.5,68.7
		H266.7z M336,82.7c-6,0-9.3-3.5-9.9-9c-2.6,4.6-7.2,9-14.5,9c-6.5,0-13.9-3.5-13.9-12.9c0-11.1,10.7-13.7,21-13.7
		c2.5,0,5.1,0.1,7.4,0.4V55c0-4.6-0.1-10.1-7.4-10.1c-2.7,0-4.8,0.2-6.9,1.3l-1.5,5.1L300,50.2l1.6-10.4c7.9-3.2,11.9-4.1,19.3-4.1
		c9.7,0,17.9,5,17.9,15.3v19.5c0,2.6,1,3.5,3.1,3.5c0.6,0,1.2-0.1,1.9-0.3l0.3,6.9C341.7,81.9,338.8,82.7,336,82.7z"/>
</g>
</svg>
