<?xml version="1.0" standalone="no"?>
<!DOCTYPE svg PUBLIC "-//W3C//DTD SVG 20010904//EN"
 "http://www.w3.org/TR/2001/REC-SVG-20010904/DTD/svg10.dtd">
<svg version="1.0" xmlns="http://www.w3.org/2000/svg"
 width="700.000000pt" height="700.000000pt" viewBox="0 0 700.000000 700.000000"
 preserveAspectRatio="xMidYMid meet">
<metadata>
Created by potrace 1.11, written by Peter Selinger 2001-2013
</metadata>
<g transform="translate(0.000000,700.000000) scale(0.100000,-0.100000)"
fill="#000000" stroke="none">
<path d="M0 3500 l0 -3500 3500 0 3500 0 0 3500 0 3500 -3500 0 -3500 0 0
-3500z m3166 1525 c348 -59 602 -249 734 -548 l33 -75 41 82 c111 220 297 394
516 483 144 58 200 67 420 67 191 0 212 -2 303 -27 381 -102 623 -352 710
-732 20 -86 21 -124 24 -877 l4 -788 204 0 205 0 0 -325 0 -325 -630 0 -630 0
0 833 c-1 887 -7 1084 -40 1211 -52 204 -152 318 -315 361 -79 21 -251 21
-330 0 -202 -53 -333 -204 -387 -445 -19 -89 -21 -132 -25 -692 l-5 -598 204
-2 203 -3 3 -327 2 -328 -634 0 -635 0 -4 958 c-3 829 -6 966 -20 1027 -69
305 -207 425 -489 426 -172 0 -285 -39 -384 -133 -99 -94 -150 -201 -179 -378
-12 -78 -15 -201 -15 -667 l0 -573 288 -2 287 -3 3 -327 2 -328 -930 0 -930 0
2 328 3 327 198 3 197 2 0 845 0 845 -200 0 -200 0 0 330 0 330 635 0 635 0 2
-221 3 -220 43 65 c138 211 378 367 647 420 97 19 322 19 431 1z"/>
</g>
</svg>
